<svg xmlns="http://www.w3.org/2000/svg" width="20" height="20" viewBox="0 0 20 20" fill="none">
  <path d="M10.1719 17.5001C11.5436 17.4669 12.8801 17.0592 14.0368 16.3211C15.1935 15.5831 16.1263 14.5426 16.7344 13.3126L12.4921 10.7032C12.4191 10.6563 12.3363 10.6268 12.25 10.6173L10.4609 10.3751C10.3274 10.3559 10.1913 10.3816 10.074 10.448C9.95665 10.5145 9.86472 10.6179 9.81245 10.7423L8.74213 13.1407C8.69185 13.2523 8.67537 13.3762 8.69482 13.4969C8.71428 13.6178 8.76875 13.7303 8.85153 13.8204L10.3203 15.4064C10.3866 15.4793 10.4353 15.5667 10.4624 15.6615C10.4896 15.7563 10.4944 15.8562 10.4765 15.9532L10.1719 17.5001Z" fill="#E5C767"/>
  <path d="M5.07816 4.3438L4.37503 5.99998C4.31377 6.14708 4.31094 6.31195 4.36717 6.46095L5.26561 8.85155C5.30078 8.95119 5.36082 9.04015 5.44017 9.10995C5.51952 9.17969 5.61542 9.22791 5.7188 9.25003L6.14062 9.33594L6.78905 7.79686C6.83772 7.68372 6.91837 7.58728 7.02106 7.51923C7.12375 7.45125 7.24406 7.4147 7.3672 7.41409H9.03911C9.14272 7.41127 9.24434 7.38457 9.33597 7.33597L10.2969 6.80473C10.3395 6.78123 10.3789 6.75232 10.4141 6.71875L12.5157 4.82033C12.6185 4.72466 12.6866 4.59755 12.7092 4.45892C12.7318 4.3203 12.7077 4.17809 12.6406 4.05472L11.9141 2.74223C11.2887 2.58148 10.6456 2.50015 10 2.5C8.18996 2.49657 6.44046 3.15193 5.07816 4.3438Z" fill="#E5C767"/>
  <path fill-rule="evenodd" clip-rule="evenodd" d="M10 1.875C10 1.875 11.6526 1.875 13.1628 2.51376C13.1628 2.51376 14.621 3.13053 15.7452 4.25476C15.7452 4.25476 16.8695 5.37899 17.4862 6.83719C17.4862 6.83719 18.125 8.34739 18.125 10C18.125 10 18.125 11.6526 17.4862 13.1628C17.4862 13.1628 16.8695 14.621 15.7452 15.7452C15.7452 15.7452 14.621 16.8695 13.1628 17.4862C13.1628 17.4862 11.6526 18.125 10 18.125C10 18.125 8.34739 18.125 6.83719 17.4862C6.83719 17.4862 5.37899 16.8695 4.25476 15.7452C4.25476 15.7452 3.13053 14.621 2.51376 13.1628C2.51376 13.1628 1.875 11.6526 1.875 10C1.875 10 1.875 8.34739 2.51376 6.83719C2.51376 6.83719 3.13053 5.37899 4.25476 4.25476C4.25476 4.25476 5.37899 3.13053 6.83719 2.51376C6.83719 2.51376 8.34739 1.875 10 1.875ZM10 3.125C10 3.125 8.60087 3.125 7.32413 3.66501C7.32413 3.66501 6.09047 4.18681 5.13864 5.13864C5.13864 5.13864 4.18681 6.09047 3.66502 7.32413C3.66502 7.32413 3.125 8.60087 3.125 10C3.125 10 3.125 11.3991 3.66502 12.6759C3.66502 12.6759 4.18681 13.9095 5.13864 14.8614C5.13864 14.8614 6.09047 15.8132 7.32413 16.335C7.32413 16.335 8.60087 16.875 10 16.875C10 16.875 11.3991 16.875 12.6759 16.335C12.6759 16.335 13.9095 15.8132 14.8614 14.8614C14.8614 14.8614 15.8132 13.9095 16.335 12.6759C16.335 12.6759 16.875 11.3991 16.875 10C16.875 10 16.875 8.60087 16.335 7.32413C16.335 7.32413 15.8132 6.09047 14.8614 5.13864C14.8614 5.13864 13.9095 4.18681 12.6759 3.66501C12.6759 3.66501 11.3991 3.125 10 3.125Z" fill="#1C1C1C"/>
  <path fill-rule="evenodd" clip-rule="evenodd" d="M9.55866 17.3793L9.86334 15.8325C9.86334 15.8325 9.86288 15.8348 9.86238 15.8348C9.86238 15.8348 9.86196 15.8348 9.8615 15.8332C9.8615 15.8332 9.8605 15.8297 9.85803 15.827L8.393 14.2451C8.393 14.2451 8.13741 13.9668 8.0778 13.5963C8.0778 13.5963 8.01818 13.2258 8.17246 12.8838L9.24175 10.4876C9.24175 10.4876 9.39945 10.1118 9.76608 9.90418C9.76608 9.90418 10.1327 9.69656 10.5498 9.75645L12.3277 9.99711C12.3277 9.99711 12.5996 10.0292 12.8302 10.1775L17.0615 12.7801L17.0618 12.7803C17.2415 12.8908 17.3533 13.0845 17.3591 13.2954L17.3594 13.3126C17.3594 13.4282 17.3273 13.5416 17.2667 13.6401C17.1799 13.7812 17.0405 13.8822 16.8793 13.9206C16.8348 13.9312 16.7893 13.9369 16.7437 13.9375L16.7344 13.9376C16.6188 13.9376 16.5054 13.9055 16.4069 13.845L16.4066 13.8448L12.1668 11.2367L12.1662 11.2366L10.3839 10.9954L10.3832 10.997L9.31192 13.3977L10.7826 14.9857C10.7826 14.9857 10.982 15.2049 11.0634 15.4898C11.0634 15.4898 11.1448 15.7747 11.0898 16.074L10.7851 17.6209C10.7531 17.7835 10.6577 17.9268 10.5201 18.0191C10.4258 18.0824 10.3161 18.1188 10.2027 18.1243C10.1924 18.1249 10.1821 18.1251 10.1719 18.1251C10.1313 18.1251 10.0909 18.1212 10.0511 18.1133C9.7774 18.0594 9.57257 17.8307 9.54909 17.5527C9.54761 17.5352 9.54687 17.5177 9.54687 17.5001C9.54687 17.4596 9.55082 17.4191 9.55866 17.3793Z" fill="#1C1C1C"/>
  <path d="M5.65343 4.58798L5.65924 4.57381C5.68824 4.50057 5.70312 4.42252 5.70312 4.34375C5.70312 4.09296 5.55321 3.86645 5.32236 3.76845L5.30818 3.76263C5.23495 3.73364 5.15689 3.71875 5.07812 3.71875C4.99789 3.71875 4.91841 3.7342 4.84402 3.76425C4.83573 3.7676 4.82751 3.77113 4.81937 3.77483C4.67693 3.83961 4.56397 3.95548 4.50282 4.09952L3.79805 5.75969C3.60735 6.21752 3.78214 6.68081 3.78214 6.68081L4.67615 9.05928C4.78393 9.36514 5.02747 9.57929 5.02747 9.57929C5.27101 9.79343 5.5874 9.86104 5.5874 9.86104L7.25905 10.2203L7.5594 10.8444C7.7187 11.1596 8.01814 11.3468 8.01814 11.3468C8.31759 11.5339 8.67969 11.5391 8.67969 11.5391H9.73438C10.0796 11.5391 10.3594 11.2592 10.3594 10.9141C10.3594 10.5689 10.0796 10.2891 9.73438 10.2891H8.67971C8.68209 10.2891 8.68227 10.2884 8.68227 10.2884C8.68243 10.2879 8.68064 10.2868 8.68064 10.2868C8.67695 10.2844 8.67498 10.2806 8.67498 10.2806L8.38354 9.67439C8.25984 9.41382 8.0301 9.23421 8.0301 9.23421C7.80036 9.05459 7.51452 8.99678 7.51452 8.99678L5.85354 8.6397L4.95224 6.24107L4.95195 6.24031L5.65343 4.58798Z" fill="#1C1C1C"/>
  <path d="M6.2131 7.55421L5.56466 9.09327C5.5323 9.17008 5.51562 9.25259 5.51562 9.33594C5.51562 9.35228 5.51627 9.36862 5.51755 9.38492C5.53586 9.61788 5.68261 9.82117 5.89796 9.9119C5.97477 9.94427 6.05728 9.96094 6.14062 9.96094L6.15238 9.96083C6.22922 9.95938 6.30513 9.94378 6.3763 9.9148C6.52983 9.85229 6.65223 9.73136 6.71659 9.5786L7.36503 8.03954C7.36459 8.04058 7.36485 8.04079 7.36485 8.04079L7.36609 8.04035C7.36803 8.03907 7.37036 8.03905 7.37036 8.03905L9.03906 8.03906L9.05583 8.03884C9.36004 8.03067 9.62887 7.88804 9.62887 7.88804L10.5993 7.35166C10.7294 7.28005 10.8383 7.17778 10.8383 7.17778L12.9346 5.2841C13.2566 4.98466 13.326 4.55961 13.326 4.55961C13.3954 4.13455 13.1897 3.75617 13.1897 3.75617L12.4609 2.43949C12.3508 2.24061 12.1414 2.11719 11.9141 2.11719L11.8963 2.11744C11.7965 2.12027 11.6988 2.147 11.6114 2.19538C11.4125 2.30547 11.2891 2.51487 11.2891 2.74219L11.2893 2.75992C11.2921 2.85977 11.3189 2.95749 11.3673 3.04488L12.0915 4.3532C12.0928 4.35555 12.0924 4.35819 12.0924 4.35819L12.0925 4.35912C12.0932 4.35963 12.0964 4.3568 12.0964 4.3568L9.9951 6.25496L9.98849 6.26102L9.043 6.78384C9.03487 6.78815 9.02584 6.78906 9.02584 6.78906L7.36401 6.78907C6.98881 6.79098 6.67597 6.99813 6.67597 6.99813C6.36313 7.20528 6.2131 7.55421 6.2131 7.55421Z" fill="#1C1C1C"/>
</svg>